<svg width="50" height="50" viewBox="0 0 50 50" fill="none" xmlns="http://www.w3.org/2000/svg">
    <g clip-path="url(#clip0_8_58)">
        <path d="M31.2507 15.6853C31.0565 14.5797 30.9038 13.4739 30.762 12.368L30.7103 11.9533L30.6849 11.746L30.6787 11.6942C30.6766 11.6772 30.6749 11.6579 30.6717 11.6466L30.655 11.5689C30.6112 11.3632 30.5327 11.173 30.4258 11.0066C30.318 10.841 30.1854 10.6965 30.0324 10.5859C29.8797 10.4754 29.7131 10.3936 29.542 10.3475C29.3709 10.3014 29.1983 10.2858 29.0299 10.302L28.2561 10.3729L27.4266 10.4452C27.1501 10.469 26.8736 10.4922 26.5971 10.5135C25.491 10.6028 24.3848 10.6801 23.2786 10.7486C22.7255 10.784 22.1724 10.8146 21.6193 10.8452L21.4118 10.8567L21.3081 10.8621L21.2822 10.8634L21.2695 10.864L21.2646 10.8653L21.2453 10.8698C21.2325 10.8725 21.2197 10.8748 21.207 10.8766C21.1942 10.8783 21.1813 10.8787 21.1695 10.8843C21.1456 10.8935 21.121 10.8975 21.0975 10.9052C21.0035 10.936 20.9212 10.9897 20.8477 11.0502C20.7746 11.1115 20.7133 11.1861 20.6686 11.2663C20.6245 11.347 20.5949 11.431 20.5812 11.5159C20.5726 11.558 20.5732 11.6015 20.572 11.6446C20.5734 11.6557 20.5744 11.6667 20.5748 11.6776L20.575 11.6939L20.5748 11.7021L20.5747 11.7062L20.575 11.7172L20.5829 11.9247L20.6096 12.7544C20.6457 13.8607 20.6709 14.9671 20.6918 16.0735C20.6981 16.3501 20.7006 16.6267 20.7048 16.9034L20.705 16.9163L20.7046 16.9385L20.7035 16.9834L20.7007 17.0732L20.6926 17.2527C20.6907 17.3125 20.6825 17.3722 20.6745 17.432C20.6665 17.4917 20.658 17.5514 20.6489 17.611C20.6339 17.7307 20.601 17.8475 20.5728 17.965C20.5569 18.0233 20.5449 18.0828 20.5242 18.1397C20.5049 18.197 20.4851 18.2541 20.4647 18.3111C20.134 19.2223 19.4623 19.992 18.6094 20.4488C18.5014 20.5033 18.393 20.5575 18.282 20.6053C18.1692 20.6493 18.0554 20.6912 17.941 20.7308C17.8247 20.7643 17.7073 20.7948 17.5897 20.8233C17.4716 20.849 17.3517 20.8653 17.2323 20.8832C17.1725 20.8931 17.1127 20.8972 17.0528 20.9007L16.8728 20.9104C16.7302 20.9172 16.6906 20.9143 16.6152 20.9151L16.2002 20.9158L14.5404 20.9077C13.9871 20.901 13.4339 20.8975 12.8806 20.8883L11.3418 20.8612C11.2597 20.8608 11.1804 20.8738 11.1026 20.9022C11.0249 20.9299 10.9479 20.972 10.8803 21.0291C10.8124 21.0857 10.7549 21.156 10.71 21.2336C10.6661 21.312 10.6363 21.3983 10.6226 21.4945L10.6189 21.5125L10.6168 21.5215C10.6164 21.5233 10.616 21.5238 10.6157 21.5268L10.6152 21.5397L10.6116 21.6435L10.6035 21.851L10.5865 22.266L10.5518 23.096C10.5257 23.6494 10.5011 24.2028 10.4706 24.7561C10.4428 25.3095 10.4088 25.8629 10.3766 26.4163C10.3409 26.9698 10.3066 27.5232 10.2663 28.0766C10.2473 28.3533 10.2273 28.6301 10.2056 28.9068L10.1532 29.6101C10.1492 29.7688 10.1748 29.9309 10.2319 30.0885C10.2889 30.246 10.3786 30.3968 10.4943 30.5315C10.6098 30.6666 10.7538 30.7818 10.9172 30.8712L10.9788 30.9058C11.0001 30.9155 11.022 30.9235 11.0437 30.9328L11.1094 30.961C11.1311 30.9722 11.1547 30.9753 11.1774 30.9832L11.2467 31.0045C11.2583 31.0079 11.2699 31.0125 11.2817 31.0152L11.3176 31.0218L11.3899 31.0364L11.4264 31.0442C11.4333 31.0454 11.4371 31.0472 11.4464 31.048L11.4724 31.0507C12.0259 31.1077 12.5794 31.1693 13.133 31.2342C14.2401 31.3663 15.3473 31.5095 16.4547 31.6946C15.3491 31.89 14.2433 32.0435 13.1374 32.1858C12.5845 32.2559 12.0316 32.3226 11.4786 32.3848L11.4527 32.3877C11.4448 32.3888 11.4313 32.389 11.4209 32.3896L11.3538 32.3927L11.2189 32.3978L11.1511 32.3996C11.1285 32.3995 11.106 32.3974 11.0834 32.3963L10.9474 32.3873C10.9021 32.383 10.8559 32.3829 10.8111 32.3743L10.6756 32.3517C10.6304 32.3437 10.5848 32.3364 10.5398 32.3269L10.4062 32.291C10.0494 32.1936 9.70793 32.0258 9.40368 31.8009C9.09931 31.5759 8.8346 31.2905 8.62585 30.9625C8.41656 30.6346 8.27185 30.2601 8.19623 29.8708L8.18098 29.7977C8.17598 29.7733 8.17406 29.7487 8.1706 29.7242L8.15302 29.5763L8.14498 29.502L8.1386 29.435L8.12973 29.3313L8.09427 28.9165C8.07006 28.64 8.04748 28.3635 8.02589 28.087C7.98048 27.5339 7.94098 26.9808 7.90018 26.4278C7.86285 25.8747 7.82368 25.3216 7.79077 24.7685C7.75502 24.2155 7.72535 23.6623 7.69414 23.1093L7.65168 22.2795L7.63085 21.8647L7.62077 21.6573L7.61618 21.5536L7.6156 21.5406V21.52L7.61585 21.4772L7.61693 21.3915C7.62052 20.9352 7.70852 20.4718 7.87843 20.0396C8.04752 19.6065 8.3021 19.2086 8.61643 18.8659C8.93148 18.5236 9.30977 18.2363 9.73135 18.0266C10.1526 17.817 10.616 17.6852 11.085 17.64L11.261 17.6273C11.3171 17.6237 11.3892 17.6198 11.4131 17.6195L11.6205 17.6128L12.0353 17.6016L12.8651 17.58C13.4183 17.5657 13.9716 17.557 14.5247 17.5452L16.1844 17.5216L16.5993 17.5184C16.6623 17.5177 16.761 17.5182 16.7564 17.5143C16.7655 17.5132 16.7745 17.5126 16.7836 17.5126C16.7928 17.5129 16.8021 17.5138 16.8103 17.5102C16.8272 17.5047 16.8451 17.5054 16.862 17.5015C16.8781 17.4948 16.8947 17.4908 16.9119 17.4883C16.9272 17.4797 16.943 17.4735 16.9599 17.4694C16.9753 17.4614 16.9897 17.4515 17.0065 17.4465C17.068 17.414 17.1254 17.3692 17.1728 17.3156C17.2207 17.2622 17.2565 17.2006 17.2829 17.1368C17.2859 17.1287 17.2896 17.1208 17.2938 17.113C17.2993 17.1057 17.2975 17.096 17.3006 17.0879C17.3032 17.0707 17.3151 17.0556 17.3139 17.0372C17.3149 17.0283 17.3165 17.0196 17.3187 17.011C17.3209 17.0023 17.3246 16.9938 17.3231 16.9842C17.3229 16.975 17.3234 16.9658 17.3244 16.9565L17.3264 16.9427L17.3277 16.9357L17.3284 16.932L17.3284 16.9191C17.33 16.6425 17.33 16.3658 17.3337 16.0892C17.3443 14.9826 17.3593 13.876 17.3851 12.7694L17.4041 11.9395L17.41 11.732L17.4137 11.6516L17.4187 11.5643L17.4311 11.3901C17.4568 11.1583 17.498 10.9272 17.5653 10.703C17.6958 10.2541 17.9089 9.83137 18.1898 9.46483C18.4698 9.09758 18.8148 8.78408 19.2039 8.54171C19.5928 8.29958 20.0271 8.12908 20.4753 8.04633C20.587 8.02575 20.7001 8.01312 20.8124 7.99929C20.8686 7.99129 20.9249 7.98975 20.9813 7.98775L21.1501 7.98312L21.2343 7.98191L21.2554 7.98171L21.2686 7.98221L21.2945 7.98325L21.3983 7.98762L21.6058 7.99729C22.1591 8.02271 22.7125 8.04821 23.2659 8.07846C24.3727 8.13662 25.4795 8.20366 26.5864 8.28262C26.8631 8.30137 27.1398 8.32196 27.4165 8.34321L28.2467 8.40779L28.6618 8.44158L28.8693 8.45858L28.9879 8.46954L29.1323 8.48521C29.5158 8.53258 29.8894 8.64837 30.2232 8.82812C30.5571 9.00733 30.8537 9.24408 31.0932 9.524C31.3335 9.80304 31.5179 10.1238 31.636 10.4627C31.7552 10.8012 31.808 11.1575 31.7951 11.5036L31.7899 11.633C31.7893 11.6562 31.7869 11.6715 31.7851 11.6891L31.7794 11.741L31.7559 11.9486L31.7081 12.3638C31.577 13.4707 31.4346 14.578 31.2507 15.6853Z" fill="#528AC8"/>
        <path d="M26.2696 23.7401C26.1176 23.8211 25.9646 23.8978 25.8148 23.9809C25.6636 24.0604 25.515 24.1446 25.3669 24.2282C25.0713 24.3969 24.7812 24.5716 24.4992 24.7558C24.2161 24.9378 23.9424 25.1312 23.6765 25.3304C23.543 25.4295 23.414 25.5337 23.2848 25.6361C23.1582 25.7422 23.0314 25.8468 22.9099 25.9569C22.6647 26.1741 22.4306 26.4003 22.2114 26.6368C21.994 26.873 21.7898 27.112 21.6092 27.3668L21.5405 27.461C21.5178 27.4926 21.4975 27.5258 21.4759 27.558C21.4338 27.6232 21.3895 27.6863 21.3485 27.7517L21.2299 27.9498C21.2096 27.9823 21.191 28.0159 21.1733 28.0501L21.1191 28.1514L21.0648 28.2523C21.0475 28.2863 21.0318 28.3214 21.0151 28.3557C20.9825 28.4249 20.9472 28.492 20.9169 28.5621L20.827 28.7721C20.7973 28.8419 20.7727 28.9146 20.7453 28.9853C20.6416 29.2718 20.5488 29.5613 20.4809 29.8611C20.4119 30.1601 20.3513 30.4617 20.3119 30.7712L20.2955 30.8865L20.2828 31.0033L20.257 31.2371C20.2429 31.3991 20.2258 31.5604 20.214 31.722C20.204 31.8836 20.1891 32.0446 20.1833 32.206L20.1709 32.4476C20.1665 32.5281 20.1655 32.6089 20.1625 32.6894C20.1431 33.3339 20.1527 33.9781 20.1865 34.6334C20.2009 34.9601 20.2221 35.2915 20.2441 35.6238L20.3157 36.6329C20.3395 36.9718 20.3655 37.3141 20.3866 37.6583L20.4541 38.6539L20.4751 38.8951L20.4858 39.0066L20.4913 39.06L20.4974 39.1099C20.5135 39.2421 20.5338 39.3508 20.557 39.4337C20.5803 39.5171 20.605 39.5739 20.6303 39.6144C20.6377 39.6236 20.6426 39.6344 20.6494 39.6432C20.6571 39.6512 20.6617 39.661 20.6693 39.6689C20.6731 39.6728 20.6767 39.6769 20.68 39.6811C20.6833 39.6853 20.6856 39.6894 20.6914 39.6949C20.7015 39.705 20.71 39.7162 20.7194 39.7267C20.7972 39.8092 20.8983 39.8758 21.0062 39.9179C21.1144 39.9597 21.2271 39.9776 21.3287 39.9685L22.319 39.9374L23.3404 39.9098C24.7022 39.8725 26.064 39.8461 27.4259 39.824L28.4473 39.8102L28.958 39.804L29.0196 39.8031C29.0253 39.8018 29.0309 39.8008 29.0365 39.8C29.0478 39.7984 29.059 39.7977 29.0704 39.7978C29.0821 39.7999 29.0921 39.7935 29.1029 39.7919C29.1135 39.7896 29.1242 39.7881 29.1352 39.7875C29.2187 39.7682 29.296 39.7301 29.3656 39.6766C29.4342 39.6229 29.4962 39.555 29.5313 39.4767C29.5687 39.3996 29.5912 39.3199 29.5948 39.2297C29.5954 39.2241 29.5963 39.2185 29.5973 39.2129L29.5974 39.1518L29.5971 39.0241L29.5966 38.7687L29.5955 38.258L29.6018 36.215L29.6194 34.1719C29.6214 34.08 29.6188 34.0288 29.6278 33.8559C29.6315 33.783 29.636 33.7101 29.6413 33.6374C29.6468 33.5648 29.6603 33.4922 29.6708 33.4197C29.6823 33.3473 29.6938 33.2748 29.7079 33.203C29.7251 33.1316 29.7433 33.0604 29.7622 32.9894C29.7966 32.8465 29.8488 32.7092 29.901 32.5721C29.9143 32.5379 29.9272 32.5036 29.9413 32.4698L29.9881 32.3704C30.0198 32.3044 30.0521 32.2387 30.0853 32.1735C30.1011 32.1405 30.1197 32.1091 30.1386 32.0779L30.1953 31.9842C30.2337 31.9221 30.2718 31.8597 30.3128 31.7996C30.3558 31.7409 30.3996 31.6826 30.444 31.6249C30.4885 31.5674 30.5321 31.5091 30.5822 31.4564C30.6805 31.3493 30.7765 31.2401 30.8869 31.1455C31.3148 30.7539 31.8302 30.4582 32.3858 30.289C32.5259 30.2524 32.6663 30.2138 32.8085 30.1891C32.8799 30.178 32.9514 30.1676 33.023 30.1581L33.1303 30.1445C33.166 30.1408 33.2018 30.1399 33.2376 30.1378C33.3093 30.1342 33.381 30.1314 33.4525 30.1295L33.5062 30.1282L33.533 30.1277L33.5502 30.128L33.614 30.1294L33.8694 30.1352C34.5505 30.1492 35.2315 30.1689 35.9126 30.1876C36.5937 30.2068 37.2748 30.2299 37.9559 30.2529L38.4668 30.2719L38.7222 30.2814L38.8499 30.2862L38.8818 30.2874L38.8975 30.2879L38.9038 30.2878L38.9292 30.288C39.0655 30.2957 39.2008 30.2781 39.3328 30.2276L39.3456 30.2238L39.3572 30.2175L39.3808 30.2056C39.3967 30.1978 39.4135 30.1912 39.43 30.1838C39.4448 30.1738 39.4599 30.1643 39.4756 30.1552C39.4909 30.1456 39.5088 30.1391 39.5219 30.1263C39.5491 30.1027 39.5837 30.0859 39.6084 30.0586C39.6221 30.0462 39.6363 30.0342 39.6511 30.0225C39.6649 30.01 39.6755 29.9948 39.6888 29.9816C39.79 29.8725 39.8735 29.7411 39.9167 29.5916C39.9207 29.5727 39.9258 29.5538 39.9314 29.5348L39.9403 29.5063C39.9438 29.4969 39.9432 29.4867 39.945 29.4768C39.9477 29.457 39.951 29.4371 39.9549 29.4171L39.958 29.4021C39.9589 29.396 39.9605 29.3951 39.9607 29.3819L39.964 29.3181L39.9903 28.8072L40.0463 27.7855C40.1235 26.4231 40.2107 25.0608 40.3108 23.6983C40.3612 23.0171 40.414 22.3358 40.4711 21.6546L40.4818 21.5268L40.4845 21.4949C40.4853 21.4845 40.4865 21.4724 40.4866 21.4661L40.4892 21.4201L40.4958 21.3272L40.4976 21.3037L40.4965 21.2806L40.4945 21.2341C40.4933 21.203 40.4924 21.1717 40.4921 21.14L40.4796 21.0468C40.4745 21.0158 40.4741 20.9831 40.4658 20.9526L40.4437 20.8597L40.4331 20.8125C40.4289 20.797 40.4227 20.7823 40.4176 20.767L40.3862 20.675C40.3776 20.6431 40.3607 20.6154 40.3479 20.5852L40.3078 20.4947L40.258 20.4089C40.2407 20.3807 40.2271 20.349 40.2061 20.3232L40.1476 20.2411C40.1376 20.2275 40.1286 20.2128 40.1179 20.1998L40.0844 20.1617C39.9099 19.9533 39.6843 19.7784 39.4238 19.6571C39.3911 19.6426 39.3572 19.631 39.3237 19.6173C39.2898 19.605 39.2566 19.5887 39.2217 19.579L39.1162 19.5498C39.0808 19.5399 39.0453 19.5279 39.0088 19.5235L38.899 19.5043L38.8429 19.4945L38.7791 19.4876L38.5236 19.4598C37.8422 19.3826 37.1609 19.3065 36.4794 19.2117C37.1599 19.1105 37.8405 19.0281 38.5211 18.9445L38.7763 18.9143L38.8401 18.9069L38.9117 18.9026L39.057 18.895C39.1058 18.8909 39.1542 18.8945 39.2031 18.8968L39.3502 18.905C39.3994 18.9082 39.4476 18.9184 39.4966 18.9251C39.5453 18.9332 39.5948 18.9397 39.6436 18.9496C40.0326 19.0336 40.4083 19.2108 40.7328 19.4652L40.7942 19.5126C40.8142 19.5289 40.8325 19.547 40.8518 19.5643L40.9659 19.6703C41.0054 19.7048 41.0373 19.7458 41.0729 19.7841L41.1769 19.9023L41.2704 20.0294C41.3004 20.0727 41.3342 20.1141 41.3595 20.1606L41.44 20.2982C41.4531 20.3214 41.4672 20.3442 41.4792 20.3679L41.513 20.4404L41.5798 20.5869C41.6025 20.6358 41.6169 20.6875 41.6355 20.7383C41.6528 20.7893 41.6708 20.8405 41.6869 20.8923L41.7242 21.0504L41.7421 21.13L41.7508 21.17L41.7564 21.2103L41.7771 21.3723L41.7867 21.4538L41.7932 21.5207L41.8052 21.6483C41.8686 22.329 41.9277 23.0098 41.9844 23.6905C42.0972 25.0519 42.1971 26.4134 42.2868 27.775L42.3523 28.7962L42.3834 29.3068L42.3873 29.3706C42.3882 29.3786 42.3879 29.3991 42.3881 29.4142L42.3883 29.4629C42.3883 29.5279 42.3877 29.5931 42.3864 29.6583C42.3853 29.6909 42.3863 29.7236 42.3828 29.7561L42.3731 29.8539C42.3662 29.9192 42.3589 29.9845 42.3505 30.0498C42.1938 31.0953 41.5351 32.0617 40.5908 32.5938C40.1203 32.8607 39.5825 33.0238 39.0386 33.0581L38.9365 33.0653L38.8948 33.0676L38.8628 33.0691L38.7352 33.0751L38.4798 33.0869L37.9692 33.1107C37.2883 33.14 36.6075 33.1694 35.9266 33.195C35.2458 33.22 34.5649 33.2461 33.884 33.2664L33.6287 33.2746L33.5648 33.2766L33.55 33.2772L33.545 33.2784L33.5349 33.2806C33.5215 33.2834 33.5082 33.2853 33.4948 33.2864C33.4882 33.2873 33.4813 33.2866 33.4749 33.2882C33.4686 33.2905 33.4623 33.2926 33.4561 33.2944C33.4435 33.2981 33.431 33.301 33.4183 33.3031C33.4151 33.3037 33.4118 33.3039 33.4087 33.3047L33.3999 33.3089C33.394 33.3115 33.3881 33.314 33.3821 33.3163C33.3702 33.3207 33.3581 33.3241 33.3457 33.3268C33.2527 33.3662 33.1688 33.426 33.1002 33.5C33.0799 33.5153 33.0695 33.54 33.0521 33.5578C33.0425 33.566 33.0382 33.5784 33.0317 33.589C33.0254 33.5997 33.0185 33.6098 33.0108 33.6195C33.0052 33.6304 33.0014 33.6424 32.9953 33.6529C32.9925 33.6582 32.9895 33.6634 32.9862 33.6686C32.9828 33.6736 32.9793 33.6786 32.9783 33.6848C32.9748 33.6965 32.9706 33.7076 32.9656 33.7185C32.9631 33.7239 32.9605 33.7292 32.9575 33.7344C32.956 33.7402 32.9553 33.7463 32.9538 33.752C32.9488 33.7752 32.9373 33.7962 32.937 33.8204C32.9351 33.832 32.9324 33.8434 32.9288 33.8545C32.9284 33.8665 32.9289 33.8786 32.9275 33.8902C32.9274 33.9021 32.9225 33.9132 32.9238 33.9255C32.9253 33.9379 32.9258 33.95 32.9256 33.9621C32.923 33.9592 32.926 34.0784 32.9278 34.1566L32.9644 36.1994L32.9898 38.2423L32.9934 38.753L32.9953 39.0084L32.9962 39.1361L32.9965 39.2026L32.9932 39.3134C32.9799 39.9037 32.8314 40.4997 32.56 41.0294C32.2907 41.5611 31.8961 42.0221 31.4242 42.3807C30.9521 42.7384 30.397 42.9954 29.8124 43.1108C29.7393 43.1234 29.6659 43.1352 29.5925 43.1461C29.519 43.1561 29.4455 43.1693 29.3719 43.1721C29.2983 43.1769 29.2245 43.1809 29.1508 43.1839L29.0402 43.1879H28.974L28.4633 43.1865L27.4418 43.1821C26.0798 43.1727 24.7178 43.1589 23.3556 43.1343L22.334 43.1162L21.2815 43.0918C20.9921 43.0829 20.7054 43.0416 20.4293 42.9684C20.153 42.8953 19.8876 42.7904 19.6371 42.6593C19.1365 42.3967 18.6947 42.0253 18.3539 41.5701C18.3116 41.5131 18.2715 41.4542 18.2313 41.3957C18.1913 41.3375 18.1525 41.2704 18.1147 41.2073C18.0769 41.1432 18.044 41.0763 18.0098 41.0103C17.9767 40.9439 17.9481 40.8763 17.9185 40.8089C17.8052 40.5381 17.734 40.2661 17.6898 40.0159C17.6456 39.7649 17.6271 39.5348 17.6176 39.3275L17.6143 39.25L17.6122 39.176C17.6106 39.1257 17.6098 39.0792 17.6094 39.0324L17.6085 38.7634L17.6244 37.7167L17.6466 36.6997C17.6596 36.0174 17.6798 35.3214 17.7203 34.6139C17.7409 34.2609 17.7706 33.9042 17.8047 33.5479C17.8247 33.3692 17.8413 33.1911 17.8664 33.0126L17.9018 32.7453C17.9138 32.6562 17.9285 32.5672 17.9418 32.4783C17.9942 32.1224 18.0616 31.7687 18.1344 31.4177C18.1706 31.2421 18.2123 31.0681 18.2511 30.8936C18.2717 30.8054 18.2956 30.7144 18.3183 30.6253L18.3527 30.4911L18.3912 30.3569C18.4905 29.9997 18.6114 29.6438 18.7518 29.2951C18.8903 28.9458 19.055 28.6033 19.2402 28.2733C19.424 27.9426 19.634 27.6254 19.8647 27.3272L19.9515 27.2157C19.9801 27.1783 20.0095 27.1416 20.0406 27.1063L20.2239 26.8924C20.2864 26.8226 20.3515 26.7552 20.4156 26.6873C20.448 26.6538 20.4793 26.6192 20.5127 26.5867L20.6134 26.4899C20.6813 26.4264 20.7459 26.3597 20.8163 26.2995L21.025 26.1173C21.0943 26.0568 21.1685 26.0022 21.2399 25.9447C21.3118 25.8876 21.3835 25.8311 21.4573 25.7791C21.7471 25.5631 22.0502 25.3693 22.3576 25.1887C22.6655 25.0088 22.9796 24.844 23.3002 24.6975C23.62 24.5497 23.9435 24.4148 24.272 24.2971C24.9279 24.0602 25.5949 23.8736 26.2696 23.7401Z" fill="#528AC8"/>
        <path d="M17.444 28.0353C17.4043 27.924 17.3663 27.8118 17.3311 27.6985C17.2955 27.5853 17.2651 27.4708 17.233 27.3558C17.2176 27.2982 17.2035 27.2403 17.1898 27.1822C17.1756 27.1242 17.1623 27.0659 17.1504 27.0073L17.1135 26.8311L17.081 26.6535C16.9979 26.1783 16.9625 25.689 16.9744 25.1897C16.9855 24.9405 17.0019 24.688 17.0432 24.4358C17.0598 24.3091 17.0859 24.1831 17.112 24.0564C17.1236 23.9927 17.142 23.9304 17.1573 23.8672C17.174 23.8042 17.1885 23.7404 17.2073 23.6777C17.3547 23.175 17.5759 22.6782 17.8745 22.2184L17.9919 22.0498C18.0316 21.9937 18.0704 21.9365 18.1143 21.8837C18.2004 21.7769 18.2841 21.6657 18.3789 21.5657L18.5193 21.4127C18.5672 21.3627 18.6178 21.3162 18.6673 21.2679C18.7174 21.2203 18.7669 21.1712 18.8183 21.125L18.9758 20.9908C19.4003 20.6366 19.8693 20.3431 20.3557 20.108C20.4165 20.0786 20.4773 20.0471 20.5386 20.0196L20.7233 19.9402L20.9092 19.8621C20.9711 19.8371 21.0316 19.8166 21.093 19.7936C21.2156 19.7499 21.338 19.702 21.462 19.6626L21.648 19.6012C21.7096 19.5801 21.7744 19.5641 21.8377 19.5454L22.0288 19.4916L22.2188 19.4441C22.3461 19.411 22.4714 19.3843 22.5973 19.3566C22.849 19.3025 23.0972 19.26 23.3436 19.219C24.3252 19.0634 25.2561 18.989 26.097 18.8643C26.2006 18.8479 26.3051 18.8321 26.406 18.8145L26.6981 18.7568C26.7466 18.7469 26.7956 18.7405 26.8438 18.728L26.9886 18.6933C27.085 18.6692 27.1818 18.6501 27.2775 18.6228C27.4686 18.5668 27.66 18.5168 27.8488 18.4515L27.9908 18.4055L28.0617 18.3823L28.132 18.3559L28.4128 18.2512C29.9055 17.6685 31.3098 16.7622 32.6325 15.6813L32.6531 15.6645C33.3753 15.0744 34.4391 15.1814 35.0291 15.9036C35.2411 16.163 35.3628 16.465 35.3986 16.7748L35.4115 16.8842L35.4217 16.9795L35.4398 17.1642C35.451 17.286 35.461 17.4063 35.47 17.5262C35.4885 17.7657 35.5008 18.0039 35.5098 18.2417C35.5278 18.7174 35.5344 19.1921 35.5221 19.6678C35.5111 20.1435 35.4872 20.62 35.4431 21.0972C35.4222 21.3358 35.397 21.5748 35.3673 21.8139C35.3374 22.0527 35.3008 22.292 35.2622 22.5312C35.104 23.488 34.8634 24.4477 34.5014 25.392C34.3146 25.8624 34.105 26.3308 33.8438 26.7834C33.5879 27.2372 33.2844 27.6766 32.9338 28.0861C32.7591 28.2914 32.568 28.486 32.369 28.6724C32.2658 28.763 32.1661 28.8557 32.0577 28.9407C32.0039 28.9835 31.952 29.0278 31.8966 29.0688L31.73 29.1905L31.6879 29.2207L31.6421 29.2517L31.5502 29.3132C31.4891 29.3535 31.4256 29.3974 31.3719 29.4244L31.0362 29.6086C30.9236 29.6722 30.8137 29.7215 30.7033 29.775C30.5927 29.8272 30.4835 29.8817 30.3723 29.9312C29.4809 30.3241 28.5583 30.6088 27.6244 30.7869C26.6896 30.9611 25.7429 31.0244 24.8124 30.9759C23.8823 30.9246 22.9666 30.7632 22.1081 30.4646C23.014 30.393 23.8871 30.2563 24.728 30.044C25.5684 29.8335 26.3761 29.5539 27.1431 29.2109C27.9086 28.8641 28.6338 28.4568 29.3029 27.9961C29.3866 27.9386 29.4671 27.877 29.5491 27.8181C29.6301 27.7586 29.7147 27.6998 29.7866 27.639L30.0111 27.4612C30.0529 27.431 30.0756 27.4043 30.103 27.3775L30.1436 27.3376L30.1638 27.3179L30.1858 27.2947C30.3058 27.1727 30.4189 27.0432 30.5266 26.9088C30.6317 26.7708 30.732 26.6289 30.8263 26.4801C31.1992 25.8819 31.4765 25.1869 31.6757 24.4437C31.8766 23.6999 32.0026 22.911 32.0808 22.1056C32.0994 21.9038 32.1167 21.7017 32.1283 21.4978C32.1414 21.2942 32.1531 21.0901 32.16 20.8849C32.1678 20.6798 32.1713 20.4741 32.1737 20.2679C32.1765 20.0617 32.177 19.8552 32.1737 19.6483C32.1662 19.2348 32.1541 18.82 32.1286 18.4074C32.1157 18.2012 32.1003 17.9954 32.0842 17.7917C32.0758 17.6899 32.0666 17.5887 32.0566 17.4892L32.0411 17.3421L32.0261 17.2155L34.7921 18.3089C34.0216 18.9403 33.202 19.5325 32.3147 20.0457C32.0964 20.1783 31.8659 20.295 31.6397 20.417C31.5253 20.4762 31.4081 20.532 31.2924 20.5893L31.1184 20.6746L30.9408 20.7548L30.5838 20.9111L30.2198 21.0553C30.1588 21.0787 30.0991 21.1042 30.0371 21.1257L29.8516 21.191C29.7275 21.2337 29.6053 21.2795 29.4791 21.317L29.101 21.4297L29.0065 21.4576L28.9107 21.4823L28.7188 21.5308C28.5905 21.5617 28.4642 21.5982 28.3337 21.6219L27.9448 21.699C27.8151 21.724 27.6832 21.7406 27.5527 21.7614L27.3566 21.7907C27.2914 21.8013 27.2249 21.8057 27.1592 21.8135L26.7641 21.8517C26.6352 21.8615 26.5096 21.8683 26.3831 21.8757C25.3813 21.924 24.46 21.8888 23.599 21.9073C23.493 21.9107 23.3849 21.9123 23.28 21.917C23.1761 21.9225 23.069 21.9255 22.9673 21.9329C22.8645 21.9393 22.7606 21.9447 22.6607 21.9549L22.509 21.9683L22.3607 21.9862C22.2621 21.9965 22.1617 22.0127 22.0611 22.028C21.9598 22.0416 21.8613 22.0629 21.7608 22.08C21.7112 22.0894 21.6595 22.0971 21.6113 22.1077L21.4686 22.1409L21.3246 22.1726C21.2771 22.1839 21.2315 22.1983 21.1846 22.2109C20.4348 22.4146 19.7552 22.7543 19.192 23.2781L19.0896 23.3797C19.0558 23.4142 19.0191 23.4467 18.9883 23.4841C18.9244 23.5572 18.8565 23.6285 18.7971 23.7072L18.7041 23.8236L18.6173 23.9459L18.5734 24.0074C18.5592 24.0282 18.5464 24.05 18.5328 24.0713L18.4504 24.2C18.2382 24.5498 18.0646 24.9388 17.9227 25.3511C17.6446 26.1794 17.5073 27.094 17.444 28.0353Z" fill="#7CC7B9"/>
    </g>
    <defs>
        <clipPath id="clip0_8_58">
            <rect width="50" height="50" fill="white"/>
        </clipPath>
    </defs>
</svg>
